<svg width="331" height="673" viewBox="0 0 331 673" fill="none" xmlns="http://www.w3.org/2000/svg">
<circle cx="93.5" cy="182.5" r="237.5" fill="white"/>
<mask id="mask0_2_3056" style="mask-type:alpha" maskUnits="userSpaceOnUse" x="-144" y="-55" width="475" height="475">
<circle cx="93.5" cy="182.5" r="237.5" fill="white"/>
</mask>
<g mask="url(#mask0_2_3056)">
<path d="M397.653 506.336L331.569 386.855L265.694 232.336C259.038 216.795 241.016 209.638 225.721 216.246C210.18 222.902 203.023 240.924 209.631 256.219L277.122 413.739C278.003 415.608 278.933 417.722 280.306 419.494L366.605 528.838L397.653 506.336Z" fill="#8383D6"/>
<path d="M295.813 460.358L257.147 370.95C245.303 343.41 212.891 330.675 185.105 342.568L150.286 357.643C122.5 369.535 109.519 401.996 121.609 429.487L163.995 527.354C175.839 554.894 208.251 567.629 236.037 555.736L270.856 540.661C278.626 537.333 285.072 532.48 290.291 526.592C293.328 504.532 295.086 482.471 295.813 460.358Z" fill="#F7B98F"/>
<path d="M132.603 156.277C135.099 162.424 137.913 183.069 139.425 189.411C141.62 199.194 143.716 208.485 138.247 216.977C143.594 222.048 150.911 225.452 158.38 225.76C165.603 226.116 173.076 223.869 179.128 219.604C180.703 218.526 182.18 216.956 183.706 215.632C185.428 214.013 187.397 212.346 189.12 210.727C176.957 197.044 165.927 181.349 164.878 163.164C160.307 163.304 153.527 162.604 148.956 162.743C146.941 162.887 144.878 162.785 142.911 163.175C140.01 164.005 135.896 156.135 132.603 156.277Z" fill="#FF8772"/>
<path d="M167.851 176.88C166.483 172.553 165.312 167.932 165.172 163.361C160.602 163.501 153.821 162.801 149.251 162.94C147.236 163.084 145.172 162.982 143.206 163.372C143.206 163.372 143.206 163.372 142.96 163.421C149.632 170.017 158.42 174.406 167.851 176.88Z" fill="#2D1A14"/>
<path d="M88.5437 341.269C87.6159 337.876 86.6395 334.238 85.7117 330.846C85.612 331.632 85.2178 332.221 85.1182 333.007C86.0969 335.367 87.173 338.219 88.5437 341.269Z" fill="#5A525D"/>
<path d="M264.173 231.105C264.173 231.105 248.153 203.115 214.831 205.12L214.782 204.875L213.553 205.118C209.277 205.455 204.607 206.38 199.789 207.846L188.482 210.087C173.294 212.075 158.205 213.277 143.114 215.757C141.639 216.049 140.165 216.342 138.69 216.634C134.511 217.462 130.333 218.29 126.203 219.364C126.203 219.364 125.957 219.413 125.711 219.462C123.745 219.851 122.073 220.438 120.156 221.074C118.238 221.709 116.566 222.296 114.648 222.931C108.895 224.838 103.486 227.187 98.2221 230.274C97.2876 230.715 96.4019 231.401 95.7133 231.793C95.2704 232.136 94.7789 232.234 94.336 232.577C93.2044 233.312 91.8758 234.342 90.4984 235.125C90.4984 235.125 90.4983 235.125 90.2525 235.174C90.2525 235.174 90.2526 235.174 90.0068 235.223C78.5916 243.36 66.1888 254.248 65.9672 268.597C65.6123 302.898 84.5224 336.446 97.2457 367.133C113.981 407.753 127.816 449.204 139.044 491.682C139.142 492.174 139.239 492.665 139.337 493.157L301.165 462.874L264.173 231.105Z" fill="#8383D6"/>
<path d="M173.403 149.469C173.452 149.714 173.501 149.96 173.549 150.206L173.598 150.452L173.647 150.697C173.695 150.943 173.744 151.189 173.744 151.189C173.744 151.189 173.744 151.189 173.793 151.435C173.842 151.681 173.89 151.926 173.742 152.467C173.791 152.713 173.839 152.958 173.691 153.499L173.74 153.744L173.788 153.99C173.837 154.236 173.64 154.531 173.689 154.776C173.54 155.317 173.441 156.103 173.292 156.643C173.341 156.889 173.341 156.889 173.144 157.183C172.896 158.51 172.402 159.885 171.86 161.014C171.662 161.309 171.711 161.554 171.514 161.849C171.563 162.095 171.317 162.143 171.317 162.143C171.12 162.438 171.169 162.684 170.923 162.733C170.529 163.322 170.135 163.911 169.692 164.254C169.495 164.548 169.298 164.843 169.052 164.891C168.215 165.824 167.378 166.756 166.492 167.442C165.852 168.08 164.917 168.521 164.278 169.158C164.032 169.207 163.835 169.502 163.835 169.502C163.589 169.55 163.589 169.55 163.392 169.845L163.146 169.894L162.9 169.942C162.654 169.991 162.457 170.286 162.211 170.334C161.031 170.824 159.605 171.362 158.13 171.654C157.885 171.703 157.393 171.8 157.147 171.849C153.657 172.285 150.021 171.984 146.928 170.553C141.084 168.135 136.228 162.967 134.864 156.084L133.939 151.414L131.26 137.896L130.432 133.717L129.262 127.818C129.214 127.572 129.116 127.081 129.068 126.835C129.019 126.589 129.019 126.589 128.97 126.343C128.921 126.097 128.921 126.097 128.873 125.852C128.824 125.606 128.824 125.606 128.775 125.36L128.727 125.114L128.678 124.868C128.678 124.868 128.678 124.868 128.629 124.623C128.58 124.377 128.58 124.377 128.532 124.131L128.483 123.885L128.434 123.639C128.386 123.394 128.337 123.148 128.534 122.853C128.485 122.608 128.485 122.608 128.437 122.362C128.388 122.116 128.388 122.116 128.339 121.87C128.29 121.624 128.29 121.624 128.242 121.379C128.193 121.133 128.193 121.133 128.144 120.887C128.096 120.641 128.096 120.641 128.293 120.347C128.244 120.101 128.244 120.101 128.441 119.806C128.392 119.561 128.589 119.266 128.541 119.02C128.541 119.02 128.541 119.02 128.492 118.775C128.443 118.529 128.64 118.234 128.592 117.988C128.592 117.988 128.592 117.988 128.543 117.743C128.494 117.497 128.691 117.202 128.643 116.957C130.62 110.178 136.231 104.979 143.311 103.321C151.422 101.713 159.327 105.511 163.689 112.054C164.865 114.121 165.795 116.235 166.577 118.89L172.424 147.108C173.257 148.731 173.354 149.223 173.403 149.469Z" fill="#FF8772"/>
<path d="M124.466 141.758C119.046 142.884 115.565 148.191 116.692 153.611C117.818 159.031 123.125 162.512 128.545 161.385C133.965 160.259 137.446 154.952 136.319 149.532C135.193 144.112 129.886 140.631 124.466 141.758Z" fill="#FF8772"/>
<path d="M168.133 128.033L160.808 129.741C159.825 129.935 158.696 129.393 158.55 128.656C158.355 127.672 158.946 126.789 160.175 126.545L167.5 124.838C168.483 124.643 169.613 125.186 169.759 125.923C169.954 126.906 169.117 127.839 168.133 128.033Z" fill="#2D1A14"/>
<path d="M152.451 131.397L145.126 133.104C144.143 133.299 143.014 132.756 142.867 132.019C142.673 131.036 143.264 130.152 144.493 129.909L151.818 128.201C152.801 128.007 153.93 128.549 154.077 129.287C154.271 130.27 153.68 131.153 152.451 131.397Z" fill="#2D1A14"/>
<path d="M161.663 146.942L161.711 147.188C162.004 148.662 160.035 150.33 157.577 150.817C155.119 151.304 152.663 150.513 152.371 149.039L152.322 148.793L161.663 146.942Z" fill="white"/>
<path d="M153.463 142.947L159.504 145.071L156.532 130.077" stroke="#472A1C" stroke-width="0.2911" stroke-miterlimit="10" stroke-linecap="round" stroke-linejoin="round"/>
<path d="M154.754 135.283C154.9 136.02 153.326 137.099 151.162 137.783C150.425 137.929 149.736 138.321 148.999 138.467C148.016 138.662 147.278 138.808 146.492 138.709C144.231 138.901 142.61 138.456 142.71 137.67C142.564 136.933 143.696 136.197 145.613 135.562C146.548 135.121 147.531 134.926 148.514 134.732C149.497 134.537 150.48 134.342 151.266 134.441C153.036 134.346 154.608 134.546 154.754 135.283Z" fill="white"/>
<path d="M151.756 135.622C151.902 136.359 151.557 137.194 150.917 137.832C150.179 137.978 149.49 138.37 148.753 138.516C147.77 138.711 147.033 138.857 146.246 138.757C145.657 138.363 145.068 137.969 144.922 137.231C144.825 136.74 144.973 136.2 145.122 135.659C146.056 135.219 147.039 135.024 148.022 134.829C149.006 134.634 149.989 134.439 150.775 134.539C151.315 134.687 151.658 135.13 151.756 135.622Z" fill="#2D1A14"/>
<path d="M169.256 132.409C169.402 133.146 168.025 133.93 166.353 134.517C165.861 134.614 165.124 134.761 164.632 134.858C163.895 135.004 163.157 135.15 162.42 135.296C160.651 135.392 159.325 135.144 159.227 134.652C159.13 134.16 160.015 133.474 161.687 132.887C162.376 132.495 163.113 132.349 164.096 132.154C164.834 132.008 165.571 131.862 166.357 131.962C167.783 131.424 169.11 131.672 169.256 132.409Z" fill="white"/>
<path d="M166.749 132.65C166.895 133.388 166.747 133.928 166.107 134.566C165.615 134.663 164.878 134.809 164.387 134.907C163.649 135.053 162.912 135.199 162.174 135.345C161.634 135.197 161.242 134.508 161.145 134.016C161.047 133.525 161.196 132.985 161.393 132.69C162.081 132.298 162.819 132.152 163.802 131.957C164.539 131.811 165.277 131.665 166.063 131.765C166.554 131.667 166.652 132.159 166.749 132.65Z" fill="#2D1A14"/>
<path d="M162.073 109.054C158.933 106.1 154.956 104.078 150.731 103.383C146.998 102.59 142.967 102.878 139.427 104.346C135.886 105.814 132.589 108.511 131.256 112.096C131.404 111.556 131.109 111.359 130.815 111.162C129.681 113.174 128.793 115.139 127.905 117.103C127.954 117.348 127.708 117.397 127.757 117.643C127.803 119.166 127.604 120.739 127.65 122.262L131.645 142.417L131.448 142.712C133.41 144.878 135.814 146.7 137.579 149.16L134.9 135.641C136.182 133.088 136.875 130.141 137.077 127.291C137.077 127.291 137.077 127.291 137.028 127.045C142.039 127.84 147.008 124.557 150.994 121.468C155.954 123.294 163.423 123.602 167.312 120.022C167.073 116.237 165.213 112.008 162.073 109.054Z" fill="#2D1A14"/>
<path d="M135.604 126.306C132.409 126.939 129.17 124.771 128.536 121.576L127.757 117.643C127.124 114.448 129.291 111.208 132.487 110.575C135.682 109.942 138.922 112.109 139.555 115.305L140.334 119.238C140.968 122.433 138.8 125.672 135.604 126.306Z" fill="#2D1A14"/>
<path d="M134.353 110.971C132.292 109.592 129.588 110.127 127.865 111.746C126.143 113.365 125.647 116.018 125.593 118.327C125.786 120.588 126.519 122.997 127.203 125.161C128.62 129.733 130.234 134.012 131.651 138.584C130.538 129.098 131.831 120.156 134.353 110.971Z" fill="#2D1A14"/>
<path d="M222.402 34.5128C215.478 31.7979 207.418 32.3735 201.219 35.9009C195.267 39.3796 190.834 45.3672 187.727 51.6028C184.62 57.8384 182.102 64.4681 178.701 70.5066C171.553 83.4185 160.036 93.6199 146.561 99.1002C143.709 100.176 140.611 101.301 137.905 103.115C135.199 104.928 132.445 106.496 132.046 109.64C123.789 110.51 122.303 117.191 124.995 123.044C126.22 125.356 127.641 127.373 128.374 129.782C128.423 130.028 128.423 130.028 128.472 130.274C128.961 131.454 129.499 132.88 129.743 134.109C130.524 136.764 131.06 139.468 131.842 142.123C132.579 141.977 133.757 142.765 134.495 142.619C134.256 138.835 134.508 134.953 134.515 131.12C134.765 128.516 134.818 126.206 135.609 123.75C135.56 123.505 135.757 123.21 136.003 123.161C136.2 122.867 136.692 122.769 136.937 122.721C140.919 122.187 145.343 121.31 147.168 117.628C147.609 118.562 148.049 119.497 148.933 120.088C150.159 121.122 151.829 121.813 153.45 122.258C162.292 124.338 172.223 121.603 178.574 114.98C194.737 117.908 209.839 109.039 221.653 97.7572C230.661 89.0749 238.15 77.8836 239.204 65.1577C240.356 52.9234 234.041 39.1034 222.402 34.5128Z" fill="#2D1A14"/>
<path d="M274.857 275.99L291.273 358.823" stroke="#472A1C" stroke-width="0.4269" stroke-miterlimit="10" stroke-linecap="round" stroke-linejoin="round"/>
<path d="M131.372 579.289L117.603 444.075L122.909 276.216C123.43 259.508 110.137 245.283 93.43 244.762C76.7226 244.242 62.4974 257.534 61.9768 274.242L56.5666 445.443C56.4647 447.507 56.6573 449.768 57.0958 451.98L90.6192 587.621L131.421 579.535L131.372 579.289Z" fill="#8383D6"/>
<path d="M126.912 319.615L115.29 418.223" stroke="#472A1C" stroke-width="0.4269" stroke-miterlimit="10" stroke-linecap="round" stroke-linejoin="round"/>
</g>
<g filter="url(#filter0_d_2_3056)">
<circle cx="62.5" cy="133.5" r="25.5" fill="white"/>
<circle cx="62.5" cy="133.5" r="25" stroke="#C6FFDD"/>
</g>
<path opacity="0.4" d="M62.776 142.837C60.493 141.427 58.3707 139.765 56.4479 137.88C55.0905 136.534 54.0539 134.89 53.4172 133.075C52.2796 129.535 53.6038 125.489 57.3011 124.288C59.2526 123.676 61.3751 124.052 63.0071 125.3C64.6397 124.053 66.7614 123.677 68.713 124.288C72.4103 125.489 73.7435 129.535 72.6058 133.075C71.9743 134.889 70.9438 136.532 69.5929 137.88C67.6684 139.762 65.5463 141.425 63.2648 142.837L63.016 143L62.776 142.837Z" fill="#52D22E"/>
<path d="M63.0109 143L62.776 142.837C60.4901 141.427 58.3649 139.765 56.439 137.88C55.0752 136.536 54.0324 134.892 53.3905 133.075C52.2618 129.535 53.586 125.489 57.2834 124.288C59.2349 123.676 61.3853 124.052 63.0109 125.311V143Z" fill="#52D22E"/>
<path d="M69.2304 130.999C69.0296 130.986 68.8425 130.886 68.7131 130.722C68.5836 130.557 68.5232 130.343 68.5459 130.13C68.5677 129.428 68.168 128.789 67.5517 128.54C67.1609 128.433 66.9243 128.01 67.022 127.592C67.1148 127.182 67.4993 126.926 67.8858 127.019C67.9346 127.027 67.9816 127.045 68.0244 127.071C69.2601 127.547 70.0601 128.826 69.9965 130.226C69.9944 130.438 69.9117 130.64 69.7673 130.786C69.6229 130.932 69.4291 131.009 69.2304 130.999Z" fill="#52D22E"/>
<g filter="url(#filter1_d_2_3056)">
<circle cx="268.5" cy="133.5" r="25.5" fill="white"/>
<circle cx="268.5" cy="133.5" r="25" stroke="#FFF9C6"/>
</g>
<path opacity="0.4" d="M259 132.078C259.05 134.416 259.19 138.415 259.21 138.856C259.281 139.799 259.642 140.752 260.204 141.424C260.986 142.367 261.949 142.788 263.292 142.788C265.148 142.798 267.194 142.798 269.181 142.798C271.176 142.798 273.112 142.798 274.747 142.788C276.071 142.788 277.064 142.356 277.836 141.424C278.398 140.752 278.759 139.789 278.81 138.856C278.83 138.485 278.93 134.144 278.99 132.078H259Z" fill="#FFE600"/>
<path d="M268.245 136.384V137.678C268.245 138.092 268.581 138.428 268.995 138.428C269.409 138.428 269.745 138.092 269.745 137.678V136.384C269.745 135.97 269.409 135.634 268.995 135.634C268.581 135.634 268.245 135.97 268.245 136.384Z" fill="#FFE600"/>
<path fill-rule="evenodd" clip-rule="evenodd" d="M267.211 135.556C267.111 135.919 266.762 136.151 266.384 136.101C263.833 135.745 261.395 134.84 259.337 133.481C259.126 133.343 259 133.107 259 132.855V129.389C259 127.289 260.712 125.581 262.817 125.581H264.784C264.972 124.129 266.202 123 267.704 123H270.286C271.787 123 273.018 124.129 273.206 125.581H275.183C277.282 125.581 278.99 127.289 278.99 129.389V132.855C278.99 133.107 278.863 133.342 278.654 133.481C276.592 134.846 274.144 135.755 271.576 136.11C271.541 136.115 271.507 136.117 271.473 136.117C271.134 136.117 270.831 135.888 270.746 135.552C270.544 134.756 269.821 134.199 268.99 134.199C268.148 134.199 267.433 134.744 267.211 135.556ZM270.286 124.5H267.704C267.031 124.5 266.469 124.96 266.301 125.581H271.688C271.52 124.96 270.958 124.5 270.286 124.5Z" fill="#FFE600"/>
<path opacity="0.4" d="M320.527 450.833H315.472C313.495 450.833 312.167 449.447 312.167 447.382V442.618C312.167 440.554 313.495 439.167 315.472 439.167H320.528C322.505 439.167 323.833 440.554 323.833 442.618V447.382C323.833 449.447 322.505 450.833 320.527 450.833Z" fill="#6270F0"/>
<path fill-rule="evenodd" clip-rule="evenodd" d="M317.56 443.06C317.56 443.86 316.909 444.51 316.11 444.51C315.31 444.51 314.66 443.86 314.66 443.06C314.66 442.261 315.31 441.61 316.11 441.61C316.909 441.61 317.56 442.261 317.56 443.06ZM322.317 446.218C322.453 446.35 322.55 446.5 322.614 446.661C322.809 447.146 322.708 447.729 322.5 448.21C322.254 448.782 321.783 449.214 321.189 449.403C320.925 449.488 320.649 449.524 320.373 449.524H315.484C314.997 449.524 314.567 449.411 314.214 449.199C313.993 449.066 313.954 448.759 314.118 448.56C314.392 448.227 314.662 447.894 314.935 447.557C315.456 446.913 315.806 446.726 316.196 446.89C316.354 446.958 316.513 447.06 316.676 447.167C317.111 447.456 317.716 447.851 318.513 447.422C319.058 447.124 319.374 446.614 319.649 446.171L319.655 446.162C319.673 446.132 319.691 446.102 319.71 446.073C319.803 445.922 319.895 445.773 320 445.636C320.129 445.466 320.61 444.935 321.231 445.313C321.627 445.551 321.96 445.873 322.317 446.218Z" fill="#6270F0"/>
<path opacity="0.4" d="M53.5275 221.833H48.4719C46.4948 221.833 45.1667 220.447 45.1667 218.383V213.618C45.1667 211.554 46.4948 210.167 48.4719 210.167H53.5281C55.5051 210.167 56.8333 211.554 56.8333 213.618V218.383C56.8333 220.447 55.5051 221.833 53.5275 221.833Z" fill="#6270F0"/>
<path fill-rule="evenodd" clip-rule="evenodd" d="M50.5596 214.06C50.5596 214.86 49.9091 215.51 49.11 215.51C48.3102 215.51 47.6604 214.86 47.6604 214.06C47.6604 213.261 48.3102 212.61 49.11 212.61C49.9091 212.61 50.5596 213.261 50.5596 214.06ZM55.3169 217.218C55.4528 217.35 55.5502 217.5 55.6144 217.661C55.8086 218.146 55.7077 218.729 55.5 219.21C55.2539 219.782 54.7825 220.214 54.1887 220.403C53.925 220.488 53.6485 220.524 53.3726 220.524H48.4837C47.9972 220.524 47.5667 220.411 47.2138 220.199C46.9927 220.066 46.9536 219.759 47.1175 219.56C47.3917 219.227 47.6624 218.894 47.9354 218.557C48.4557 217.913 48.8063 217.726 49.196 217.89C49.354 217.958 49.5127 218.06 49.676 218.167C50.1112 218.456 50.7161 218.851 51.513 218.422C52.0576 218.124 52.3738 217.614 52.649 217.171L52.6545 217.162C52.6731 217.132 52.6914 217.102 52.7097 217.073C52.8033 216.922 52.8955 216.773 52.9999 216.636C53.1294 216.466 53.61 215.935 54.2313 216.313C54.6274 216.551 54.9605 216.873 55.3169 217.218Z" fill="#6270F0"/>
<path opacity="0.4" d="M205.869 180.739C204.538 179.916 203.3 178.946 202.178 177.846C201.386 177.061 200.781 176.103 200.41 175.044C199.746 172.979 200.519 170.619 202.676 169.918C203.814 169.561 205.052 169.78 206.004 170.508C206.956 169.781 208.194 169.562 209.333 169.918C211.489 170.619 212.267 172.979 211.603 175.044C211.235 176.102 210.634 177.06 209.846 177.846C208.723 178.945 207.485 179.915 206.154 180.739L206.009 180.833L205.869 180.739Z" fill="#52D22E"/>
<path d="M206.006 180.833L205.869 180.739C204.536 179.916 203.296 178.946 202.173 177.846C201.377 177.062 200.769 176.104 200.394 175.044C199.736 172.979 200.509 170.619 202.665 169.918C203.804 169.561 205.058 169.78 206.006 170.514V180.833Z" fill="#52D22E"/>
<path d="M209.634 173.833C209.517 173.825 209.408 173.767 209.333 173.671C209.257 173.575 209.222 173.45 209.235 173.326C209.248 172.916 209.015 172.543 208.655 172.398C208.427 172.336 208.289 172.089 208.346 171.846C208.4 171.606 208.625 171.457 208.85 171.511C208.879 171.516 208.906 171.526 208.931 171.541C209.652 171.819 210.118 172.565 210.081 173.382C210.08 173.505 210.032 173.623 209.948 173.708C209.863 173.793 209.75 173.838 209.634 173.833Z" fill="#52D22E"/>
<path opacity="0.4" d="M57.8693 671.739C56.5375 670.916 55.2995 669.946 54.1779 668.846C53.3861 668.061 52.7814 667.103 52.41 666.044C51.7464 663.979 52.5189 661.619 54.6757 660.918C55.814 660.561 57.0521 660.78 58.0041 661.508C58.9565 660.781 60.1941 660.562 61.3326 660.918C63.4893 661.619 64.267 663.979 63.6034 666.044C63.235 667.102 62.6339 668.06 61.8458 668.846C60.7232 669.945 59.4854 670.915 58.1545 671.739L58.0093 671.833L57.8693 671.739Z" fill="#52D22E"/>
<path d="M58.0064 671.833L57.8693 671.739C56.5359 670.916 55.2962 669.946 54.1728 668.846C53.3772 668.062 52.7689 667.104 52.3945 666.044C51.736 663.979 52.5085 661.619 54.6653 660.918C55.8037 660.561 57.0581 660.78 58.0064 661.514V671.833Z" fill="#52D22E"/>
<path d="M61.6344 664.833C61.5172 664.825 61.4081 664.767 61.3326 664.671C61.2571 664.575 61.2218 664.45 61.2351 664.326C61.2478 663.916 61.0147 663.543 60.6552 663.398C60.4272 663.336 60.2891 663.089 60.3462 662.846C60.4003 662.606 60.6246 662.457 60.8501 662.511C60.8785 662.516 60.9059 662.526 60.9309 662.541C61.6517 662.819 62.1184 663.565 62.0812 664.382C62.0801 664.505 62.0318 664.623 61.9476 664.708C61.8633 664.793 61.7503 664.838 61.6344 664.833Z" fill="#52D22E"/>
<defs>
<filter id="filter0_d_2_3056" x="17" y="102" width="91" height="91" filterUnits="userSpaceOnUse" color-interpolation-filters="sRGB">
<feFlood flood-opacity="0" result="BackgroundImageFix"/>
<feColorMatrix in="SourceAlpha" type="matrix" values="0 0 0 0 0 0 0 0 0 0 0 0 0 0 0 0 0 0 127 0" result="hardAlpha"/>
<feOffset dy="14"/>
<feGaussianBlur stdDeviation="10"/>
<feColorMatrix type="matrix" values="0 0 0 0 0.651319 0 0 0 0 0.941667 0 0 0 0 0.549306 0 0 0 0.4 0"/>
<feBlend mode="normal" in2="BackgroundImageFix" result="effect1_dropShadow_2_3056"/>
<feBlend mode="normal" in="SourceGraphic" in2="effect1_dropShadow_2_3056" result="shape"/>
</filter>
<filter id="filter1_d_2_3056" x="223" y="102" width="91" height="91" filterUnits="userSpaceOnUse" color-interpolation-filters="sRGB">
<feFlood flood-opacity="0" result="BackgroundImageFix"/>
<feColorMatrix in="SourceAlpha" type="matrix" values="0 0 0 0 0 0 0 0 0 0 0 0 0 0 0 0 0 0 127 0" result="hardAlpha"/>
<feOffset dy="14"/>
<feGaussianBlur stdDeviation="10"/>
<feColorMatrix type="matrix" values="0 0 0 0 0.9875 0 0 0 0 0.959109 0 0 0 0 0.703594 0 0 0 0.4 0"/>
<feBlend mode="normal" in2="BackgroundImageFix" result="effect1_dropShadow_2_3056"/>
<feBlend mode="normal" in="SourceGraphic" in2="effect1_dropShadow_2_3056" result="shape"/>
</filter>
</defs>
</svg>
